/* XPM */
static char * stone_minecraft_xpm[] = {
"64 64 90 1",
" 	c #CDCDCD",
".	c #A4A4A4",
"+	c #A6A6A6",
"@	c #A8A8A8",
"#	c #A9A9A9",
"$	c #A7A7A7",
"%	c #ACACAC",
"&	c #ADADAD",
"*	c #ABABAB",
"=	c #9D9D9D",
"-	c #8C8C8C",
";	c #949494",
">	c #959595",
",	c #999999",
"'	c #989898",
")	c #9A9A9A",
"!	c #9E9E9E",
"~	c #BBBBBB",
"{	c #B7B7B7",
"]	c #707070",
"^	c #6F6F6F",
"/	c #747474",
"(	c #777777",
"_	c #737373",
":	c #757575",
"<	c #787878",
"[	c #7D7D7D",
"}	c #808080",
"|	c #7B7B7B",
"1	c #717171",
"2	c #797979",
"3	c #767676",
"4	c #727272",
"5	c #7A7A7A",
"6	c #7E7E7E",
"7	c #BFBFBF",
"8	c #848484",
"9	c #909090",
"0	c #919191",
"a	c #898989",
"b	c #858585",
"c	c #7F7F7F",
"d	c #7C7C7C",
"e	c #888888",
"f	c #878787",
"g	c #818181",
"h	c #8E8E8E",
"i	c #8A8A8A",
"j	c #939393",
"k	c #828282",
"l	c #868686",
"m	c #838383",
"n	c #B8B8B8",
"o	c #C2C2C2",
"p	c #8B8B8B",
"q	c #969696",
"r	c #BCBCBC",
"s	c #8F8F8F",
"t	c #8D8D8D",
"u	c #BABABA",
"v	c #AAAAAA",
"w	c #BDBDBD",
"x	c #929292",
"y	c #979797",
"z	c #B1B1B1",
"A	c #B3B3B3",
"B	c #B9B9B9",
"C	c #AEAEAE",
"D	c #C4C4C4",
"E	c #C8C8C8",
"F	c #C3C3C3",
"G	c #C5C5C5",
"H	c #B0B0B0",
"I	c #B4B4B4",
"J	c #C1C1C1",
"K	c #C0C0C0",
"L	c #B6B6B6",
"M	c #B5B5B5",
"N	c #D2D2D2",
"O	c #9C9C9C",
"P	c #C6C6C6",
"Q	c #A0A0A0",
"R	c #AFAFAF",
"S	c #A1A1A1",
"T	c #B2B2B2",
"U	c #9B9B9B",
"V	c #A3A3A3",
"W	c #9F9F9F",
"X	c #A2A2A2",
"Y	c #A5A5A5",
" .++@###$+++++@#$+@#%&*###%&&&*=-;;>,,,';;;;;>,';>,)!=,,,)!!!='~",
"{]]^/(((_]]]]]:<_]:<[}|<<<[}}}|:111_<<2(1111]_<3]4<5}622<5}}}6<#",
"78-90000abcddd[623|68eefg6c}behhfij;;;;0fb6666c[(2ckaaalcc}ma-;n",
"op;)))),9p8}}}}}|<[}e-pp8}}}fp>qih',,,,>pe}}}}}6<5}mpipe}}}mih,~",
"r[}kbf-s-pae}5(/_4(52<|[c}}}6[}}|d6}bfttppab2<_41_2<:(|[}}}c|d6%",
"u<<([}fpppppc(4^^^/(_^:<[}}}|<<<<<<|}mpppppl<3111_<(1_2|gg}6<<2v",
"w6mlee0qqqsps0999900a8t0xje}c6mbcgeeatyyy;pt;;jjj;;0fp;>q9}}cgez",
"w}fppp;,,,0i;),,,,,)0p;)))pc}}fecmpiih,,,>ps,,,,,,,>ps',,j}}}mpA",
"B/5[[[asss-ptsss>,js-paf8k[56}kc_:|||}ttttp-ttt0,qttpa8m6[2|}}kC",
"n]:<<(8ppppppppp;,9ppp8}|(<<[}}d]4<<<6ppppppppih'>iipe}6<<<5}}c&",
"n]:<gfaplmeppplmkkc[[[|5:444///_]4<deapak8pppakg6[||||2(1114___$",
"n]:<8ppp8cfppp8}|(<<<<<<_]]]]]]]]4<[pipe}mpppe}6<<<<<<<3111111]+",
"n]142[[[c}kmmmg}c65</444<dkbbbd/]]1/|||[}}kkkg}}c[<3111:[}effm(#",
"n]]]:((([}}}}}}}}}|<_]]]5}f-p-}3444/2<<|}}gg}}}}}c2(1113gm-ppf2v",
"D000xxxx-esjfcd5mehxib-0xj;qspei;;;;>>>0atq9c626a-;0ep;>>qy;piez",
"E)))))))0p;)ic|(8p;)0p>)))))0pps,,,,,,,>ih'x}6<[ps,>ps,,,,,>pppA",
"Fsssif8gc[}gbeflapts-ptsfg6d}mmltttp8m[[|d[}aaeap-ttp-ha6d(5kkkC",
"oppp8}|(<<<38pppppppppppc(4^5}}miiie}6<<<<<[ppppppppiiil<:^/ccc&",
"u<|[c}|<d6mlaplmmmmmc[5</41]_://:(|[}6<5cgeapakkkkk}|5:/11]1___$",
"{^/(d}5(dcfppp8}}}}}|<_]]]]]]]]]]4<5}6<5}mpp-a}}}}}6<3]]1111]]]+",
"78t0xjx0xjhp0qteeeeek623cbbbd35cfp;;>>;;>jphqjaaaaafc[(|fffm(26%",
"op;),,,,,,0i;,0ppppp8}|<8-p-}<[mps,,,,'''>ps,>pppppe}6<[pppl<5}&",
"7mpsssif8gepts-plmc[</_42[gm}6cgkbtttp8m6kp-ttpak}|2_41/|[kgcc}&",
"w}fppp8}|(8ppppp8}|<_]]]:<[}}}}}}mippe}6([iiiipe}6<3]]]4<5}}}}}&",
"~5d[lpaa|43<|[[[c}c62333|6c}}}d525|cppi814:(|||[}}c[(((2cc}}}62v",
"u<<(8pp-|^]]:<<<[}}}|<<<[}}}}}|<<<<[iip8]]]4<<<5}}}6222|}}}}}62v",
"w6666[[[:]]]143<kaeefllleeeeeef8ccc6|||<]]]]1_<[aaaaeeeeaaaaaaez",
"w}}}|<<<_]]]]]:<8ppppppppppppppagggc2<<3]]]]]_<6-ppppp-----ppp-A",
"Gjjj-f6<(3335dml9qspppxqqqqqspxq>>>xab<<(((2[}e-y;ppphyyyyy;phyu",
"E,,,0p}<<<<<[}fp;)0ppp;,,,,,0i;,,,,>pl<<<<<5}mps,>ppph'''''>ps,~",
"E,js8[665<d68eipts-plmbfmgggfptx,qha|dc[<5ckaip-ttpakk8k[[[gp--A",
"E,9pc([}|<[}fppppppp8}}}5(((8pph,yha6}bm[c8ltthttttplbbm666mhtpH",
"*6}}8lllgcc}}}blg}blp-elllp--tfgIDooJJK7wwrrrrw~uBu~~un{{L{{{MBN",
"*___<555:44111(2_1(2cgd5226}gg|<yss9009taeflblalmbfa-ialblaipi;F",
"Majqqyyytakccccc5([cfiiikc}}fixhxmfaiiil}6555|[|(2[gllmg[6}mfi,D",
"Majy'''ysp8g}ccc2([cfaaim}}}fijx,t0j;;;9ilg}6[[5<56klff8g}}mftOP",
"C5||}ki-ppii6<_11132/4<56}}}d5d6>ei-h90spalk[5<33<|d[6}}}}}}}mxJ",
"&225cga---ppc5:___<5:42|}kg}|22|0c6g8ett--ib6|<(<5[|<26gmm}6|diw",
"Hcfiii;'''spjyqqqqqytajyyyf}}clb0ggmli0xx9-piieeeipembpttakc6}97",
"Hcfiia;'''sp;''',,''sp;yy'fc}}ll;mleat>qqxts;>>qyy>x-hjjx-kc}8jK",
"v1(555f---pp----q,9-ppbk[|226}g69cgkme9jx9-h0xx;yqxs-ppifm[[}k9w",
"#]3<25lpiippppiijytaiikc5((([c6|-<2|[ki-pppp---sj9paelg62<(2d6au",
"#]3<bipp8geppp8g[|555522_1111111i:(|gbiiffippillebkg}cd2:_/:3(8L",
"#]:(biiim}fiiim}|2<<<(((_14___11p:([beefm8eiafk}d552<((3//:333}M",
"#]]1(5556}gggg}}}c5<_111|cfaaad:-:/2}ggg}k8bb8gc[|2(:/:(2dgkgc8M",
"*///2|55cgkkg}}cgg[|:_//cka-ppc<s232d66cgk8mg}c}g}6|(32[kfp-ifi{",
"ryyyyyyyhi;ylc|<lijyhijyyy''spieOalfaiiefepamc[cbeiem8a-h0x9-ihB",
"w'''yyyytajyf}d2lp;'sp>''yyyhiit+y;;;;jsp-0hb}[}ehj0th;;;jx9pi0u",
"L---bk[55555liiapp--pp--}5:_[gkf+qx0htifm8eelbmbit9sptshebmm8b-n",
"Maaim}5<<222lpiiiiiiiiaa[(4]|ccmQsie8}d5||[geaeeiiiieefm53_3|[lI",
"v4<56}5<[cfipp8gggggd5:411]]1143'8gg}655d6gbialbbbb8gcd2:41_33}H",
"v4<5}kd5}kep--8ggggg|2_14___111_;[dckg[6kbep-a8mmmk}|</_::::__6R",
"Majyyyyyyysp;'hiiiiikc5(8aaa[([c)lfi-pii--pt9sellll86|3<6}}6<(mz",
"Mi;'''yyyyhp;'spiiiikc2(biii6<6kSsx>q>;jj0ts;jtpaeebc|<dmfe8d|lT",
"zga---bk[|fp--pp8gd5/111(5cg}c}kQh9xj0h-iipt99-il8g623:<6g8m66fT",
"Hcfipp8g5(8aaiiim}|2_111(26}}}}c=aap-ibg[6beaaefkc|</__:2dc}}}lz",
"&222lpip2]4_<5556}}c5((([c}}}}|5Umg8aifk2<d6gggg}c[|(::<d[c}}c8R",
"&222biii<]]]:(<<cgggd555cgggggd5)g|clefm(44/(25d}ggcd||[gkkkk}8C",
"Hccc|555_]]]]13<biiiiiiiiiiiiiif=kd6ggg[:]]1_:<[8llb888blfffflpz",
"Tkkkd52<_11111(5f-pppp------pp-iSek}[|5(_114_:5}a-ppip-tttttppxM",
"ryyyhi6<<((([cfi;'sppp;'''''sp;>@xti8}5(://3<|gls9tppt0jjjj0ttqn",
"w,''hi6<<<<2cgep;'spii;yyyyyhp;'RUqxpb[2<<<5cmetjjhpitx;;;j0thyn",
"w,9-c26c5<[cfipp--pp8ggkd555fp-sz!>0emg6dd6gfit9jj9hpphh-pp-h0yn",
"DVO,sis9-is9y,,,,,,,j999-iii>,,,n#SOq;qq;>'UWXVVV.Y.SQQW!!!S$vCG"};
